# xmcd CD database file
#
# Track frame offsets:
#	150
#	24670
#	39665
#
# Disc length: 772 seconds
#
# Revision: 0
# Processed by: cddbd v1.5PL3 Copyright (c) Steve Scherf et al.
# Submitted via: CDex 1.51
#
DISCID=1e030203
DTITLE=氣志團 - キラ キラ!
DYEAR=2004
DGENRE=JPop
TTITLE0=キラ キラ!
TTITLE1=ロール オーバー・セニョリータ
TTITLE2=愚かな英雄
EXTD=YEAR: 2004
EXTT0=
EXTT1=
EXTT2=
PLAYORDER=
